<mxfile host="app.diagrams.net" agent="Mozilla/5.0 (Windows NT 10.0; Win64; x64) AppleWebKit/537.36 (KHTML, like Gecko) Chrome/131.0.0.0 Safari/537.36" version="26.0.9">
  <diagram name="Page-1" id="AHuNkAf9N8TIK1WoVCC-">
    <mxGraphModel dx="1235" dy="655" grid="1" gridSize="10" guides="1" tooltips="1" connect="1" arrows="1" fold="1" page="1" pageScale="1" pageWidth="827" pageHeight="1169" math="0" shadow="0">
      <root>
        <mxCell id="0" />
        <mxCell id="1" parent="0" />
        <mxCell id="BMb5XiGdI6g6uUsKrDKV-1" value="&lt;span style=&quot;color: rgb(0, 0, 0); font-family: Helvetica; font-size: 12px; font-style: normal; font-variant-ligatures: normal; font-variant-caps: normal; font-weight: 400; letter-spacing: normal; orphans: 2; text-align: center; text-indent: 0px; text-transform: none; widows: 2; word-spacing: 0px; -webkit-text-stroke-width: 0px; white-space: normal; background-color: rgb(255, 255, 255); text-decoration-thickness: initial; text-decoration-style: initial; text-decoration-color: initial; float: none; display: inline !important;&quot;&gt;customer จัดการข้อมูลการชำระเงิน&lt;/span&gt;" style="text;whiteSpace=wrap;html=1;" vertex="1" parent="1">
          <mxGeometry x="203" y="60" width="190" height="40" as="geometry" />
        </mxCell>
        <mxCell id="BMb5XiGdI6g6uUsKrDKV-4" value="" style="edgeStyle=orthogonalEdgeStyle;rounded=0;orthogonalLoop=1;jettySize=auto;html=1;" edge="1" parent="1" source="BMb5XiGdI6g6uUsKrDKV-2" target="BMb5XiGdI6g6uUsKrDKV-3">
          <mxGeometry relative="1" as="geometry" />
        </mxCell>
        <mxCell id="BMb5XiGdI6g6uUsKrDKV-2" value="เริ่มต้น" style="rounded=1;whiteSpace=wrap;html=1;arcSize=50;" vertex="1" parent="1">
          <mxGeometry x="370" y="100" width="88" height="42" as="geometry" />
        </mxCell>
        <mxCell id="BMb5XiGdI6g6uUsKrDKV-6" value="" style="edgeStyle=orthogonalEdgeStyle;rounded=0;orthogonalLoop=1;jettySize=auto;html=1;" edge="1" parent="1" source="BMb5XiGdI6g6uUsKrDKV-3" target="BMb5XiGdI6g6uUsKrDKV-5">
          <mxGeometry relative="1" as="geometry" />
        </mxCell>
        <mxCell id="BMb5XiGdI6g6uUsKrDKV-3" value="&lt;span style=&quot;background-color: rgb(255, 255, 255);&quot;&gt;ชำระเงิน&lt;/span&gt;" style="rhombus;whiteSpace=wrap;html=1;" vertex="1" parent="1">
          <mxGeometry x="345" y="180" width="138" height="80" as="geometry" />
        </mxCell>
        <mxCell id="BMb5XiGdI6g6uUsKrDKV-12" value="" style="edgeStyle=orthogonalEdgeStyle;rounded=0;orthogonalLoop=1;jettySize=auto;html=1;" edge="1" parent="1" source="BMb5XiGdI6g6uUsKrDKV-5">
          <mxGeometry relative="1" as="geometry">
            <mxPoint x="414" y="380" as="targetPoint" />
          </mxGeometry>
        </mxCell>
        <mxCell id="BMb5XiGdI6g6uUsKrDKV-5" value="ตรวจสอบรายการชำระเงิน" style="rounded=0;whiteSpace=wrap;html=1;" vertex="1" parent="1">
          <mxGeometry x="349" y="300" width="130" height="40" as="geometry" />
        </mxCell>
        <mxCell id="BMb5XiGdI6g6uUsKrDKV-7" value="yes" style="text;html=1;align=center;verticalAlign=middle;resizable=0;points=[];autosize=1;strokeColor=none;fillColor=none;" vertex="1" parent="1">
          <mxGeometry x="410" y="258" width="40" height="30" as="geometry" />
        </mxCell>
        <mxCell id="BMb5XiGdI6g6uUsKrDKV-8" value="" style="endArrow=classic;html=1;rounded=0;exitX=1;exitY=0.5;exitDx=0;exitDy=0;" edge="1" parent="1" source="BMb5XiGdI6g6uUsKrDKV-3">
          <mxGeometry width="50" height="50" relative="1" as="geometry">
            <mxPoint x="390" y="320" as="sourcePoint" />
            <mxPoint x="414" y="520" as="targetPoint" />
            <Array as="points">
              <mxPoint x="580" y="220" />
              <mxPoint x="580" y="520" />
            </Array>
          </mxGeometry>
        </mxCell>
        <mxCell id="BMb5XiGdI6g6uUsKrDKV-9" value="no" style="text;html=1;align=center;verticalAlign=middle;resizable=0;points=[];autosize=1;strokeColor=none;fillColor=none;" vertex="1" parent="1">
          <mxGeometry x="510" y="188" width="40" height="30" as="geometry" />
        </mxCell>
        <mxCell id="BMb5XiGdI6g6uUsKrDKV-16" value="" style="edgeStyle=orthogonalEdgeStyle;rounded=0;orthogonalLoop=1;jettySize=auto;html=1;" edge="1" parent="1" source="BMb5XiGdI6g6uUsKrDKV-10" target="BMb5XiGdI6g6uUsKrDKV-15">
          <mxGeometry relative="1" as="geometry" />
        </mxCell>
        <mxCell id="BMb5XiGdI6g6uUsKrDKV-10" value="แสดงรายละเอียด" style="rounded=0;whiteSpace=wrap;html=1;" vertex="1" parent="1">
          <mxGeometry x="349" y="460" width="130" height="40" as="geometry" />
        </mxCell>
        <mxCell id="BMb5XiGdI6g6uUsKrDKV-14" value="" style="edgeStyle=orthogonalEdgeStyle;rounded=0;orthogonalLoop=1;jettySize=auto;html=1;" edge="1" parent="1" source="BMb5XiGdI6g6uUsKrDKV-13" target="BMb5XiGdI6g6uUsKrDKV-10">
          <mxGeometry relative="1" as="geometry" />
        </mxCell>
        <mxCell id="BMb5XiGdI6g6uUsKrDKV-13" value="ชำระเงิน" style="rounded=0;whiteSpace=wrap;html=1;" vertex="1" parent="1">
          <mxGeometry x="349" y="380" width="130" height="40" as="geometry" />
        </mxCell>
        <mxCell id="BMb5XiGdI6g6uUsKrDKV-15" value="จบ" style="rounded=1;whiteSpace=wrap;html=1;arcSize=50;" vertex="1" parent="1">
          <mxGeometry x="370" y="542.5" width="88" height="42" as="geometry" />
        </mxCell>
      </root>
    </mxGraphModel>
  </diagram>
</mxfile>
